{
  "source": "C:\\Users\\Peter\\Desktop\\stuff\\MIUN\\quantitative_research\\video_compression\\videos\\BVI-HD\\BVI-HD_CDVL_videos\\ORIG\\BricksLeaves_1920x1080_60fps.mp4",
  "output": "C:\\Users\\Peter\\Desktop\\stuff\\MIUN\\quantitative_research\\video_compression\\compressed_videos\\BVI-HD\\av1\\3\\BricksLeaves_1920x1080_60fps_av1.mkv",
  "codec": "av1",
  "ok": "Input #0, mov,mp4,m4a,3gp,3g2,mj2, from 'C:\\Users\\Peter\\Desktop\\stuff\\MIUN\\quantitative_research\\video_compression\\videos\\BVI-HD\\BVI-HD_CDVL_videos\\ORIG\\BricksLeaves_1920x1080_60fps.mp4':\n  Metadata:\n    major_brand     : isom\n    minor_version   : 512\n    compatible_brands: isomiso2avc1mp41\n    encoder         : Lavf54.28.101\n  Duration: 00:00:05.00, start: 0.000000, bitrate: 524627 kb/s\n  Stream #0:0[0x1](und): Video: h264 (High 4:4:4 Predictive) (avc1 / 0x31637661), yuv420p(progressive), 1920x1080, 524622 kb/s, 60 fps, 60 tbr, 60 tbn (default)\n    Metadata:\n      handler_name    : VideoHandler\n      vendor_id       : [0][0][0][0]\n[out#0/matroska @ 0000019eaa3590c0] Codec AVOption b:a (set bitrate (in bits/s)) has not been used for any stream. The most likely reason is either wrong type (e.g. a video option with no video streams) or that it is a private option of some decoder which was not actually used for any stream.\nStream mapping:\n  Stream #0:0 -> #0:0 (h264 (native) -> av1 (libsvtav1))\nPress [q] to stop, [?] for help\nSvt[info]: -------------------------------------------\nSvt[info]: SVT [version]:\tSVT-AV1 Encoder Lib v3.1.0-19-g6ecfe8ec\nSvt[info]: SVT [build]  :\tGCC 15.2.0\t 64 bit\nSvt[info]: LIB Build date: Aug 17 2025 11:37:13\nSvt[info]: -------------------------------------------\nSvt[info]: Level of Parallelism: 5\nSvt[info]: Number of PPCS 93\nSvt[info]: [asm level on system : up to avx2]\nSvt[info]: [asm level selected : up to avx2]\nSvt[info]: -------------------------------------------\nSvt[info]: SVT [config]: main profile\ttier (auto)\tlevel (auto)\nSvt[info]: SVT [config]: width / height / fps numerator / fps denominator \t\t: 1920 / 1080 / 60 / 1\nSvt[info]: SVT [config]: bit-depth / color format \t\t\t\t\t: 8 / YUV420\nSvt[info]: SVT [config]: preset / tune / pred struct \t\t\t\t\t: 4 / PSNR / random access\nSvt[info]: SVT [config]: gop size / mini-gop size / key-frame type \t\t\t: 321 / 16 / key frame\nSvt[info]: SVT [config]: BRC mode / target bitrate (kbps)\t\t\t\t: VBR / 3000 \nSvt[info]: SVT [config]: AQ mode / Variance Boost \t\t\t\t\t: 2 / 0\nSvt[info]: SVT [config]: sharpness / luminance-based QP bias \t\t\t\t: 0 / 0\nSvt[info]: SVT [config]: QP scale compress strength \t\t\t\t\t: 0\nSvt[info]: -------------------------------------------\nOutput #0, matroska, to 'C:\\Users\\Peter\\Desktop\\stuff\\MIUN\\quantitative_research\\video_compression\\compressed_videos\\BVI-HD\\av1\\3\\BricksLeaves_1920x1080_60fps_av1.mkv':\n  Metadata:\n    major_brand     : isom\n    minor_version   : 512\n    compatible_brands: isomiso2avc1mp41\n    encoder         : Lavf62.3.100\n  Stream #0:0(und): Video: av1 (AV01 / 0x31305641), yuv420p(tv, progressive), 1920x1080, q=2-31, 3000 kb/s, 60 fps, 1k tbn (default)\n    Metadata:\n      encoder         : Lavc62.11.100 libsvtav1\n      handler_name    : VideoHandler\n      vendor_id       : [0][0][0][0]\n    Side data:\n      cpb: bitrate max/min/avg: 0/0/3000000 buffer size: 3000000 vbv_delay: N/A\nframe=    0 fps=0.0 q=0.0 size=       0KiB time=N/A bitrate=N/A speed=N/A elapsed=0:00:01.59    \nframe=    0 fps=0.0 q=0.0 size=       0KiB time=N/A bitrate=N/A speed=N/A elapsed=0:00:02.21    \nframe=    0 fps=0.0 q=0.0 size=       0KiB time=N/A bitrate=N/A speed=N/A elapsed=0:00:02.83    \nframe=    0 fps=0.0 q=0.0 size=       0KiB time=N/A bitrate=N/A speed=N/A elapsed=0:00:03.41    \nframe=    0 fps=0.0 q=0.0 size=       0KiB time=N/A bitrate=N/A speed=N/A elapsed=0:00:04.00    \nframe=    0 fps=0.0 q=0.0 size=       0KiB time=N/A bitrate=N/A speed=N/A elapsed=0:00:04.65    \nframe=    0 fps=0.0 q=0.0 size=       0KiB time=N/A bitrate=N/A speed=N/A elapsed=0:00:05.17    \nframe=    0 fps=0.0 q=0.0 size=       0KiB time=N/A bitrate=N/A speed=N/A elapsed=0:00:05.70    \nframe=    0 fps=0.0 q=0.0 size=       0KiB time=N/A bitrate=N/A speed=N/A elapsed=0:00:06.23    \nframe=    0 fps=0.0 q=0.0 size=       0KiB time=N/A bitrate=N/A speed=N/A elapsed=0:00:06.74    \nframe=    0 fps=0.0 q=0.0 size=       0KiB time=N/A bitrate=N/A speed=N/A elapsed=0:00:07.30    \nframe=    0 fps=0.0 q=0.0 size=       0KiB time=N/A bitrate=N/A speed=N/A elapsed=0:00:07.86    \nframe=    0 fps=0.0 q=0.0 size=       0KiB time=N/A bitrate=N/A speed=N/A elapsed=0:00:08.38    \nframe=    0 fps=0.0 q=0.0 size=       0KiB time=N/A bitrate=N/A speed=N/A elapsed=0:00:08.92    \nframe=    0 fps=0.0 q=0.0 size=       0KiB time=N/A bitrate=N/A speed=N/A elapsed=0:00:09.49    \nframe=    0 fps=0.0 q=0.0 size=       0KiB time=N/A bitrate=N/A speed=N/A elapsed=0:00:10.05    \nframe=    0 fps=0.0 q=0.0 size=       0KiB time=N/A bitrate=N/A speed=N/A elapsed=0:00:10.60    \nframe=    0 fps=0.0 q=0.0 size=       0KiB time=N/A bitrate=N/A speed=N/A elapsed=0:00:11.15    \nframe=    0 fps=0.0 q=0.0 size=       0KiB time=N/A bitrate=N/A speed=N/A elapsed=0:00:11.70    \nframe=    0 fps=0.0 q=0.0 size=       0KiB time=N/A bitrate=N/A speed=N/A elapsed=0:00:12.33    \nframe=    0 fps=0.0 q=0.0 size=       0KiB time=N/A bitrate=N/A speed=N/A elapsed=0:00:12.91    \nframe=    0 fps=0.0 q=0.0 size=       0KiB time=N/A bitrate=N/A speed=N/A elapsed=0:00:13.51    \nframe=    1 fps=0.1 q=13.0 size=       1KiB time=00:00:00.00 bitrate=N/A speed=   0x elapsed=0:00:14.09    \nframe=    1 fps=0.1 q=13.0 size=       1KiB time=00:00:00.00 bitrate=N/A speed=   0x elapsed=0:00:14.69    \nframe=    1 fps=0.1 q=13.0 size=       1KiB time=00:00:00.00 bitrate=N/A speed=   0x elapsed=0:00:15.33    \nframe=    3 fps=0.2 q=46.0 size=       1KiB time=00:00:00.03 bitrate= 170.9kbits/s speed=0.00209x elapsed=0:00:15.96    \nframe=    8 fps=0.5 q=49.0 size=       1KiB time=00:00:00.10 bitrate=  57.0kbits/s speed=0.00601x elapsed=0:00:16.63    \nframe=   12 fps=0.7 q=49.0 size=       1KiB time=00:00:00.18 bitrate=  31.1kbits/s speed=0.0106x elapsed=0:00:17.30    \nframe=   17 fps=1.0 q=26.0 size=       1KiB time=00:00:00.25 bitrate=  22.8kbits/s speed=0.014x elapsed=0:00:17.87    \nframe=   19 fps=1.0 q=48.0 size=       1KiB time=00:00:00.30 bitrate=  19.0kbits/s speed=0.0162x elapsed=0:00:18.51    \nframe=   22 fps=1.1 q=48.0 size=       1KiB time=00:00:00.33 bitrate=  17.1kbits/s speed=0.0174x elapsed=0:00:19.15    \nframe=   24 fps=1.2 q=48.0 size=       1KiB time=00:00:00.36 bitrate=  15.5kbits/s speed=0.0185x elapsed=0:00:19.77    \nframe=   27 fps=1.3 q=47.0 size=       1KiB time=00:00:00.43 bitrate=  13.1kbits/s speed=0.0213x elapsed=0:00:20.37    \nframe=   32 fps=1.5 q=48.0 size=       1KiB time=00:00:00.51 bitrate=  11.0kbits/s speed=0.0246x elapsed=0:00:21.03    \nframe=   35 fps=1.6 q=49.0 size=       1KiB time=00:00:00.56 bitrate=  10.1kbits/s speed=0.0262x elapsed=0:00:21.60    \nframe=   38 fps=1.7 q=50.0 size=       1KiB time=00:00:00.61 bitrate=   9.2kbits/s speed=0.0278x elapsed=0:00:22.19    \nframe=   42 fps=1.8 q=49.0 size=       1KiB time=00:00:00.68 bitrate=   8.3kbits/s speed=0.0301x elapsed=0:00:22.71    \nframe=   46 fps=2.0 q=49.0 size=       1KiB time=00:00:00.73 bitrate=   7.8kbits/s speed=0.0315x elapsed=0:00:23.30    \nframe=   51 fps=2.1 q=49.0 size=       1KiB time=00:00:00.81 bitrate=   7.0kbits/s speed=0.0342x elapsed=0:00:23.86    \nframe=   53 fps=2.2 q=47.0 size=       1KiB time=00:00:00.86 bitrate=   6.6kbits/s speed=0.0355x elapsed=0:00:24.42    \nframe=   55 fps=2.2 q=44.0 size=       1KiB time=00:00:00.90 bitrate=   6.3kbits/s speed=0.0361x elapsed=0:00:24.95    \nframe=   59 fps=2.3 q=47.0 size=       1KiB time=00:00:00.96 bitrate=   5.9kbits/s speed=0.0379x elapsed=0:00:25.47    \nframe=   65 fps=2.5 q=35.0 size=       1KiB time=00:00:01.06 bitrate=   5.3kbits/s speed=0.0409x elapsed=0:00:26.05    \nframe=   70 fps=2.6 q=50.0 size=       1KiB time=00:00:01.15 bitrate=   5.0kbits/s speed=0.0433x elapsed=0:00:26.57    \nframe=   73 fps=2.7 q=42.0 size=       1KiB time=00:00:01.20 bitrate=   4.7kbits/s speed=0.0443x elapsed=0:00:27.11    \nframe=   75 fps=2.7 q=47.0 size=       1KiB time=00:00:01.23 bitrate=   4.6kbits/s speed=0.0446x elapsed=0:00:27.64    \nframe=   81 fps=2.9 q=34.0 size=       1KiB time=00:00:01.33 bitrate=   4.3kbits/s speed=0.0473x elapsed=0:00:28.16    \nframe=   85 fps=3.0 q=46.0 size=       1KiB time=00:00:01.40 bitrate=   4.1kbits/s speed=0.0488x elapsed=0:00:28.70    \nframe=   88 fps=3.0 q=50.0 size=       1KiB time=00:00:01.43 bitrate=   4.0kbits/s speed=0.049x elapsed=0:00:29.23    \nframe=   92 fps=3.1 q=50.0 size=       1KiB time=00:00:01.51 bitrate=   3.8kbits/s speed=0.0509x elapsed=0:00:29.80    \nframe=   97 fps=3.2 q=34.0 size=       1KiB time=00:00:01.58 bitrate=   3.6kbits/s speed=0.0522x elapsed=0:00:30.33    \nframe=  100 fps=3.2 q=50.0 size=       1KiB time=00:00:01.65 bitrate=   3.5kbits/s speed=0.0534x elapsed=0:00:30.91    \nframe=  103 fps=3.3 q=44.0 size=       1KiB time=00:00:01.70 bitrate=   3.4kbits/s speed=0.054x elapsed=0:00:31.46    \nframe=  108 fps=3.4 q=51.0 size=       1KiB time=00:00:01.76 bitrate=   3.2kbits/s speed=0.0552x elapsed=0:00:32.02    \nframe=  114 fps=3.5 q=51.0 size=       1KiB time=00:00:01.88 bitrate=   3.0kbits/s speed=0.0578x elapsed=0:00:32.57    \nframe=  118 fps=3.6 q=51.0 size=       1KiB time=00:00:01.95 bitrate=   2.9kbits/s speed=0.0589x elapsed=0:00:33.12    \nframe=  123 fps=3.7 q=48.0 size=       1KiB time=00:00:02.01 bitrate=   2.8kbits/s speed=0.0599x elapsed=0:00:33.65    \nframe=  127 fps=3.7 q=47.0 size=       1KiB time=00:00:02.10 bitrate=   2.7kbits/s speed=0.0614x elapsed=0:00:34.22    \nframe=  133 fps=3.8 q=47.0 size=       1KiB time=00:00:02.20 bitrate=   2.6kbits/s speed=0.0633x elapsed=0:00:34.76    \nframe=  136 fps=3.9 q=51.0 size=       1KiB time=00:00:02.25 bitrate=   2.5kbits/s speed=0.0638x elapsed=0:00:35.29    \nframe=  140 fps=3.9 q=51.0 size=       1KiB time=00:00:02.31 bitrate=   2.5kbits/s speed=0.0647x elapsed=0:00:35.81    \nframe=  147 fps=4.0 q=50.0 size=       1KiB time=00:00:02.43 bitrate=   2.3kbits/s speed=0.0669x elapsed=0:00:36.38    \nframe=  151 fps=4.1 q=46.0 size=       1KiB time=00:00:02.50 bitrate=   2.3kbits/s speed=0.0677x elapsed=0:00:36.91    \nframe=  155 fps=4.1 q=48.0 size=       1KiB time=00:00:02.56 bitrate=   2.2kbits/s speed=0.0685x elapsed=0:00:37.45    \nframe=  159 fps=4.2 q=48.0 size=       1KiB time=00:00:02.63 bitrate=   2.2kbits/s speed=0.0693x elapsed=0:00:37.97    \nframe=  165 fps=4.3 q=48.0 size=       1KiB time=00:00:02.73 bitrate=   2.1kbits/s speed=0.071x elapsed=0:00:38.50    \nframe=  168 fps=4.3 q=51.0 size=       1KiB time=00:00:02.78 bitrate=   2.0kbits/s speed=0.0713x elapsed=0:00:39.04    \nframe=  172 fps=4.3 q=52.0 size=       1KiB time=00:00:02.85 bitrate=   2.0kbits/s speed=0.072x elapsed=0:00:39.59    \nframe=  179 fps=4.5 q=50.0 size=       1KiB time=00:00:02.95 bitrate=   1.9kbits/s speed=0.0735x elapsed=0:00:40.15    \nframe=  182 fps=4.5 q=52.0 size=       1KiB time=00:00:03.01 bitrate=   1.9kbits/s speed=0.0742x elapsed=0:00:40.67    \nframe=  187 fps=4.5 q=49.0 size=       1KiB time=00:00:03.10 bitrate=   1.8kbits/s speed=0.0752x elapsed=0:00:41.20    \nframe=  194 fps=4.6 q=55.0 size=       1KiB time=00:00:03.21 bitrate=   1.8kbits/s speed=0.0769x elapsed=0:00:41.81    \nframe=  199 fps=4.7 q=50.0 size=       1KiB time=00:00:03.30 bitrate=   1.7kbits/s speed=0.0778x elapsed=0:00:42.41    \nframe=  207 fps=4.8 q=54.0 size=       1KiB time=00:00:03.43 bitrate=   1.7kbits/s speed=0.0799x elapsed=0:00:42.98    \nframe=  217 fps=5.0 q=48.0 size=       1KiB time=00:00:03.60 bitrate=   1.6kbits/s speed=0.0826x elapsed=0:00:43.59    \nframe=  223 fps=5.0 q=57.0 size=       1KiB time=00:00:03.66 bitrate=   1.6kbits/s speed=0.083x elapsed=0:00:44.17    \nframe=  233 fps=5.2 q=53.0 size=       1KiB time=00:00:03.86 bitrate=   1.5kbits/s speed=0.0864x elapsed=0:00:44.73    \nframe=  237 fps=5.2 q=58.0 size=       1KiB time=00:00:03.93 bitrate=   1.4kbits/s speed=0.0869x elapsed=0:00:45.26    \nframe=  249 fps=5.4 q=58.0 size=       1KiB time=00:00:04.13 bitrate=   1.4kbits/s speed=0.0903x elapsed=0:00:45.79    \nframe=  257 fps=5.5 q=55.0 size=       1KiB time=00:00:04.26 bitrate=   1.3kbits/s speed=0.0921x elapsed=0:00:46.35    \nframe=  265 fps=5.6 q=62.0 size=       1KiB time=00:00:04.40 bitrate=   1.3kbits/s speed=0.0938x elapsed=0:00:46.90    \nframe=  273 fps=5.8 q=59.0 size=       1KiB time=00:00:04.53 bitrate=   1.3kbits/s speed=0.0955x elapsed=0:00:47.46    \nframe=  285 fps=5.9 q=63.0 size=       1KiB time=00:00:04.70 bitrate=   1.2kbits/s speed=0.0979x elapsed=0:00:48.01    \n[out#0/matroska @ 0000019eaa3590c0] video:1731KiB audio:0KiB subtitle:0KiB other streams:0KiB global headers:0KiB muxing overhead: 0.120363%\nframe=  300 fps=6.2 q=63.0 Lsize=    1733KiB time=00:00:04.98 bitrate=2848.3kbits/s speed=0.103x elapsed=0:00:48.44    \n",
  "seconds": 49.15336060523987,
  "probe_out": {}
}